<svg width="16" height="14" viewBox="0 0 16 14" fill="none" xmlns="http://www.w3.org/2000/svg">
<path d="M1 0C0.447715 0 0 0.447715 0 1C0 1.55228 0.447715 2 1 2H12C12.5523 2 13 1.55228 13 1C13 0.447715 12.5523 0 12 0H1Z" fill="#9CA3AF"/>
<path d="M1 4C0.447715 4 0 4.44772 0 5C0 5.55228 0.447715 6 1 6H6C6.55228 6 7 5.55228 7 5C7 4.44772 6.55228 4 6 4H1Z" fill="#9CA3AF"/>
<path d="M1 8C0.447715 8 0 8.44772 0 9C0 9.55229 0.447715 10 1 10H5C5.55228 10 6 9.55229 6 9C6 8.44772 5.55228 8 5 8H1Z" fill="#9CA3AF"/>
<path d="M11 13C11 13.5523 11.4477 14 12 14C12.5523 14 13 13.5523 13 13L13 7.41421L14.2929 8.70711C14.6834 9.09763 15.3166 9.09763 15.7071 8.70711C16.0976 8.31658 16.0976 7.68342 15.7071 7.29289L12.7071 4.29289C12.5196 4.10536 12.2652 4 12 4C11.7348 4 11.4804 4.10536 11.2929 4.29289L8.29289 7.29289C7.90237 7.68342 7.90237 8.31658 8.29289 8.70711C8.68342 9.09763 9.31658 9.09763 9.70711 8.70711L11 7.41421L11 13Z" fill="#9CA3AF"/>
</svg>
